<?xml version="1.0" standalone="no"?>
<!DOCTYPE svg PUBLIC "-//W3C//DTD SVG 20010904//EN"
 "http://www.w3.org/TR/2001/REC-SVG-20010904/DTD/svg10.dtd">
<svg version="1.0" xmlns="http://www.w3.org/2000/svg"
 width="2500.000000pt" height="2500.000000pt" viewBox="0 0 2500.000000 2500.000000"
 preserveAspectRatio="xMidYMid meet">
<metadata>
Created by potrace 1.11, written by Peter Selinger 2001-2013
</metadata>
<g transform="translate(0.000000,2500.000000) scale(0.100000,-0.100000)"
fill="#000000" stroke="none">
<path d="M3 15607 c2 -3658 6 -6683 10 -6722 3 -38 9 -97 11 -130 16 -183 21
-235 31 -300 2 -16 7 -52 10 -80 17 -133 94 -537 131 -680 3 -11 7 -27 9 -35
2 -8 4 -15 5 -15 1 0 3 -7 5 -15 20 -93 76 -280 134 -450 182 -536 434 -1050
744 -1515 74 -112 249 -356 272 -381 5 -6 21 -26 35 -44 125 -167 293 -354
539 -600 248 -247 385 -367 641 -564 47 -36 90 -69 95 -74 20 -16 182 -128
280 -193 327 -217 737 -435 1080 -574 77 -31 160 -65 185 -75 185 -78 716
-237 880 -265 19 -3 49 -10 65 -15 27 -8 177 -38 230 -45 11 -2 34 -6 50 -9
101 -18 184 -30 280 -41 28 -3 59 -7 71 -9 12 -2 57 -7 100 -11 43 -4 89 -8
102 -10 66 -11 329 -19 572 -19 240 0 340 4 540 19 109 8 388 41 420 50 8 2
35 6 60 9 49 6 96 14 120 21 8 2 38 7 65 11 28 3 53 8 56 10 4 2 24 6 45 10
22 3 66 12 99 21 33 8 71 17 85 19 43 8 355 93 442 121 46 14 88 28 93 29 24
6 230 80 335 121 565 221 1074 505 1566 874 82 62 151 115 154 118 3 3 25 22
50 42 25 20 56 46 70 58 101 87 131 112 184 161 98 88 415 408 491 495 138
159 173 201 232 275 308 390 560 788 757 1193 l67 138 74 -148 c368 -740 851
-1381 1466 -1944 121 -111 283 -248 384 -324 44 -33 82 -63 85 -66 23 -27 475
-333 567 -384 10 -5 71 -40 135 -77 123 -71 404 -216 498 -257 30 -13 82 -36
115 -51 100 -45 304 -126 400 -160 50 -17 97 -34 105 -37 8 -4 17 -7 20 -8 3
0 57 -17 120 -37 63 -20 142 -44 175 -53 33 -9 71 -21 85 -25 14 -5 39 -11 55
-15 17 -4 37 -8 45 -10 8 -2 51 -13 95 -24 139 -35 402 -86 545 -106 25 -3 56
-8 70 -10 68 -10 109 -15 155 -20 28 -2 77 -8 110 -11 108 -12 119 -13 260
-21 244 -14 715 -8 935 11 104 10 179 17 210 21 19 3 54 7 78 10 24 3 53 7 65
10 12 2 45 7 72 10 73 9 201 31 365 65 621 127 1238 355 1805 666 162 88 459
269 475 289 7 8 16 15 21 15 7 0 195 128 224 152 6 5 35 27 65 49 30 22 64 48
75 57 11 9 54 44 95 77 406 322 824 752 1123 1155 43 58 85 113 94 124 42 52
262 390 339 521 177 302 379 730 492 1040 137 378 268 874 318 1210 2 17 9 62
15 100 25 166 32 230 45 390 3 50 9 101 12 115 8 34 14 13420 6 13420 -3 0
-47 -29 -97 -63 -88 -61 -124 -86 -372 -255 -137 -94 -192 -132 -373 -258 -79
-54 -151 -104 -160 -109 -18 -11 -104 -70 -357 -243 -88 -61 -205 -141 -260
-179 -55 -37 -208 -142 -340 -233 -132 -91 -285 -196 -340 -233 -55 -38 -165
-113 -245 -168 -80 -55 -208 -143 -285 -195 -77 -52 -198 -135 -270 -185 -336
-231 -527 -362 -732 -502 -122 -84 -230 -158 -240 -164 -88 -61 -151 -104
-265 -182 -73 -50 -151 -104 -173 -119 -22 -15 -125 -86 -230 -157 -104 -71
-194 -133 -200 -137 -12 -11 -228 -158 -345 -236 -47 -31 -90 -61 -97 -67 -6
-5 -97 -68 -203 -140 -105 -71 -242 -165 -303 -207 -62 -43 -119 -82 -127 -88
-8 -5 -79 -54 -157 -107 -79 -54 -186 -127 -239 -163 -53 -36 -101 -70 -108
-76 -6 -6 -21 -16 -33 -22 -11 -7 -91 -60 -176 -119 -161 -112 -304 -210 -634
-436 -106 -73 -281 -193 -389 -267 -109 -74 -234 -160 -278 -190 -45 -30 -139
-95 -211 -144 -71 -50 -165 -114 -207 -143 -43 -29 -113 -77 -155 -106 -43
-30 -130 -89 -193 -132 -63 -43 -151 -103 -195 -134 -163 -111 -403 -276 -510
-349 -60 -42 -137 -94 -170 -117 -33 -23 -112 -77 -175 -120 -63 -43 -149
-102 -190 -130 -41 -28 -118 -81 -170 -117 -184 -126 -316 -216 -425 -291 -60
-42 -193 -133 -295 -202 -102 -70 -266 -182 -365 -250 -99 -68 -229 -158 -290
-199 -60 -42 -182 -125 -270 -185 -88 -61 -223 -153 -300 -206 -77 -52 -178
-122 -225 -155 -47 -33 -92 -64 -101 -70 -13 -7 -34 2 -90 41 -41 27 -119 80
-174 117 -55 37 -105 72 -112 78 -6 6 -35 26 -65 45 -29 18 -57 37 -63 42 -5
4 -62 43 -125 87 -63 43 -120 83 -125 88 -6 5 -15 11 -21 13 -5 2 -74 49 -154
104 -212 146 -311 214 -440 302 -63 42 -145 99 -181 125 -37 27 -71 48 -77 48
-6 0 -12 4 -14 8 -1 4 -111 82 -243 172 -132 90 -350 240 -485 332 -135 93
-253 174 -264 181 -10 6 -35 23 -55 38 -58 40 -280 193 -306 209 -85 55 -561
386 -563 392 -2 4 -7 8 -12 8 -4 0 -33 17 -63 38 -30 20 -90 61 -133 91 -44
30 -158 108 -254 174 -96 66 -222 153 -280 192 -58 40 -127 87 -155 106 -27
18 -54 37 -60 42 -5 4 -68 48 -140 97 -71 49 -201 137 -288 197 -87 59 -166
113 -175 118 -9 6 -19 12 -22 15 -3 3 -39 28 -80 56 -84 57 -217 148 -240 164
-237 165 -423 290 -430 290 -4 0 -10 4 -12 8 -3 7 -264 188 -801 554 -78 53
-169 116 -202 138 -33 23 -177 122 -320 220 -143 98 -265 183 -272 189 -7 6
-15 11 -19 11 -3 0 -23 14 -44 30 -21 17 -42 30 -48 30 -6 0 -12 4 -14 8 -2 7
-258 185 -332 232 -13 8 -138 94 -277 190 -140 96 -258 177 -264 179 -5 2 -12
7 -15 11 -3 3 -25 20 -50 36 -54 36 -188 129 -360 247 -69 47 -181 124 -250
171 -69 47 -190 130 -270 185 -80 55 -221 152 -315 216 -489 334 -856 586
-1073 735 -92 64 -232 160 -312 215 -80 54 -178 122 -219 150 -40 27 -81 55
-90 60 -9 6 -52 35 -96 66 -90 63 -137 95 -383 265 -96 65 -181 124 -190 129
-10 6 -46 31 -82 56 -36 25 -122 85 -193 132 l-127 87 3 -6653z m10382 -6619
c-4 -117 -14 -254 -20 -298 -2 -14 -6 -52 -10 -85 -7 -67 -41 -266 -56 -335
-6 -25 -12 -52 -14 -60 -30 -142 -118 -419 -190 -595 -40 -98 -163 -354 -218
-452 -229 -405 -590 -830 -948 -1114 -35 -28 -73 -58 -84 -68 -70 -59 -329
-230 -450 -298 -180 -101 -394 -200 -594 -274 -192 -72 -547 -164 -706 -184
-27 -4 -57 -8 -65 -10 -14 -4 -47 -9 -140 -20 -219 -26 -702 -26 -863 0 -12 2
-44 6 -72 10 -49 6 -150 21 -210 31 -16 3 -70 14 -120 25 -49 12 -98 22 -108
24 -10 2 -27 7 -37 10 -10 3 -27 8 -37 10 -238 52 -647 220 -933 384 -163 93
-455 290 -490 331 -3 3 -30 25 -60 49 -129 100 -353 320 -487 476 -392 459
-670 989 -819 1565 -33 131 -38 152 -49 215 -3 17 -8 37 -10 45 -9 31 -44 278
-50 355 -4 44 -8 96 -10 115 -4 41 -7 145 -6 213 l1 47 3930 0 3929 0 -4 -112z
m12099 27 c-1 -83 -12 -279 -18 -311 -2 -11 -7 -50 -11 -89 -4 -38 -9 -77 -10
-86 -3 -16 -8 -44 -21 -126 -5 -31 -24 -121 -59 -273 -19 -86 -96 -324 -143
-445 -52 -133 -69 -172 -148 -330 -158 -317 -346 -598 -577 -859 -82 -92 -257
-267 -337 -336 -35 -30 -68 -59 -74 -65 -73 -67 -357 -275 -376 -275 -5 0 -10
-4 -10 -8 0 -5 -10 -14 -22 -21 -13 -6 -32 -17 -43 -24 -398 -243 -787 -402
-1225 -500 -63 -14 -131 -29 -150 -32 -19 -3 -46 -7 -60 -10 -39 -7 -80 -13
-141 -20 -31 -3 -67 -8 -79 -10 -133 -26 -650 -26 -850 0 -19 2 -59 7 -89 11
-30 3 -63 8 -75 10 -12 3 -39 7 -61 10 -22 3 -46 7 -54 10 -8 3 -30 7 -50 10
-20 3 -65 12 -101 20 -36 9 -74 17 -85 20 -254 52 -722 238 -980 389 -33 19
-67 38 -75 41 -20 10 -304 195 -310 203 -3 3 -40 32 -83 64 -224 167 -491 428
-679 664 -294 368 -507 761 -661 1214 -36 105 -111 383 -121 449 -3 19 -10 60
-16 90 -6 30 -13 71 -16 90 -2 19 -7 47 -10 62 -6 28 -8 51 -20 178 -4 41 -8
89 -10 105 -2 27 -7 239 -5 258 1 4 1768 6 3929 5 l3927 -3 -1 -80z"/>
</g>
</svg>
